<?xml version="1.0" encoding="UTF-8"?>
<svg xmlns="http://www.w3.org/2000/svg" width="1200" height="630" viewBox="0 0 1200 630" role="img" aria-labelledby="title desc">
  <title>Adjustable Bed API</title>
  <desc>Aurora-themed background with adjustable bed and API signal overlay</desc>
  <defs>
    <linearGradient id="bgGrad" x1="0" y1="0" x2="1" y2="1">
      <stop offset="0%" stop-color="#070A12"/>
      <stop offset="100%" stop-color="#0C1220"/>
    </linearGradient>
    <linearGradient id="aurora1" x1="0" y1="0" x2="1" y2="0">
      <stop offset="0%" stop-color="#00E0FF" stop-opacity="0.9"/>
      <stop offset="100%" stop-color="#7F7FD5" stop-opacity="0.9"/>
    </linearGradient>
    <linearGradient id="aurora2" x1="0" y1="0" x2="1" y2="0">
      <stop offset="0%" stop-color="#7F7FD5" stop-opacity="0.8"/>
      <stop offset="100%" stop-color="#00E0FF" stop-opacity="0.8"/>
    </linearGradient>
    <filter id="glow" x="-20%" y="-20%" width="140%" height="140%">
      <feGaussianBlur stdDeviation="8" result="b"/>
      <feMerge>
        <feMergeNode in="b"/>
        <feMergeNode in="SourceGraphic"/>
      </feMerge>
    </filter>
  </defs>

  <!-- Background -->
  <rect width="1200" height="630" fill="url(#bgGrad)"/>

  <!-- Subtle grid -->
  <g opacity="0.06" stroke="#E6ECF1">
    <path d="M0 90 H1200M0 180 H1200M0 270 H1200M0 360 H1200M0 450 H1200M0 540 H1200"/>
    <path d="M100 0 V630M250 0 V630M400 0 V630M550 0 V630M700 0 V630M850 0 V630M1000 0 V630"/>
  </g>

  <!-- Aurora strokes -->
  <g stroke-linecap="round" fill="none" filter="url(#glow)">
    <path d="M60,450 C240,420 420,480 600,450 S960,420 1140,450" stroke="url(#aurora1)" stroke-width="6" opacity="0.8"/>
    <path d="M60,505 C240,475 420,535 600,505 S960,475 1140,505" stroke="url(#aurora2)" stroke-width="4" opacity="0.7"/>
  </g>

  <!-- Soft aurora glows -->
  <defs>
    <radialGradient id="glowLeft" cx="20%" cy="25%" r="50%">
      <stop offset="0%" stop-color="#00E0FF" stop-opacity="0.28"/>
      <stop offset="100%" stop-color="#00E0FF" stop-opacity="0"/>
    </radialGradient>
    <radialGradient id="glowRight" cx="80%" cy="70%" r="50%">
      <stop offset="0%" stop-color="#7F7FD5" stop-opacity="0.24"/>
      <stop offset="100%" stop-color="#7F7FD5" stop-opacity="0"/>
    </radialGradient>
  </defs>
  <rect x="0" y="0" width="600" height="260" fill="url(#glowLeft)"/>
  <rect x="600" y="300" width="600" height="230" fill="url(#glowRight)"/>

  <!-- Overlay: Bed + API signal -->
  <g filter="url(#glow)">
    <!-- Bed base -->
    <rect x="250" y="390" width="700" height="90" rx="10" fill="#1F5F8B"/>
    <!-- Mattress (angled adjustable head) -->
    <path d="M270 420 L620 420 L700 390 L920 390 L920 450 L270 450 Z" fill="#173F5E"/>
    <!-- Headboard -->
    <rect x="240" y="330" width="130" height="60" rx="6" fill="#121417" stroke="#1F5F8B" stroke-width="4"/>
    <!-- Pillow -->
    <rect x="620" y="395" width="80" height="30" rx="12" fill="#7F7FD5"/>
  </g>
  <!-- WiFi / API signal -->
  <g transform="translate(960,260)" fill="none" stroke="#00E0FF" stroke-width="8" stroke-linecap="round" filter="url(#glow)">
    <path d="M0 0 A120 120 0 0 1 -170 0"/>
    <path d="M-10 40 A90 90 0 0 1 -160 40"/>
    <path d="M-20 80 A60 60 0 0 1 -150 80"/>
  </g>
  <!-- Small API node dots -->
  <circle cx="940" cy="250" r="6" fill="#00E0FF"/>
  <circle cx="905" cy="260" r="6" fill="#00E0FF"/>
  <circle cx="875" cy="275" r="6" fill="#00E0FF"/>

  <!-- Footer stripe -->
  <rect x="0" y="600" width="1200" height="30" fill="#121417"/>
</svg>
