<?xml version="1.0" encoding="UTF-8"?>
<svg xmlns="http://www.w3.org/2000/svg" width="1200" height="630" viewBox="0 0 1200 630" role="img" aria-labelledby="title desc">
  <title>On-brand teaser</title>
  <desc>Teaser background matching splash aurora colors</desc>
  <defs>
    <linearGradient id="bgGrad" x1="0" y1="0" x2="1" y2="1">
      <stop offset="0%" stop-color="#070A12"/>
      <stop offset="100%" stop-color="#0C1220"/>
    </linearGradient>
    <linearGradient id="aur1" x1="0" y1="0" x2="1" y2="0">
      <stop offset="0%" stop-color="#00E0FF"/>
      <stop offset="100%" stop-color="#7F7FD5"/>
    </linearGradient>
    <linearGradient id="aur2" x1="0" y1="0" x2="1" y2="0">
      <stop offset="0%" stop-color="#7F7FD5"/>
      <stop offset="100%" stop-color="#00E0FF"/>
    </linearGradient>
    <filter id="glow" x="-20%" y="-20%" width="140%" height="140%">
      <feGaussianBlur stdDeviation="8" result="b"/>
      <feMerge>
        <feMergeNode in="b"/>
        <feMergeNode in="SourceGraphic"/>
      </feMerge>
    </filter>
  </defs>

  <rect width="1200" height="630" fill="url(#bgGrad)"/>
  <g opacity="0.06" stroke="#E6ECF1">
    <path d="M0 90 H1200M0 180 H1200M0 270 H1200M0 360 H1200M0 450 H1200M0 540 H1200"/>
    <path d="M100 0 V630M250 0 V630M400 0 V630M550 0 V630M700 0 V630M850 0 V630M1000 0 V630"/>
  </g>
  <g stroke-linecap="round" fill="none" filter="url(#glow)">
    <path d="M60,450 C240,420 420,480 600,450 S960,420 1140,450" stroke="url(#aur1)" stroke-width="6" opacity="0.8"/>
    <path d="M60,505 C240,475 420,535 600,505 S960,475 1140,505" stroke="url(#aur2)" stroke-width="4" opacity="0.7"/>
  </g>
  <defs>
    <radialGradient id="glowLeft" cx="20%" cy="25%" r="50%">
      <stop offset="0%" stop-color="#00E0FF" stop-opacity="0.28"/>
      <stop offset="100%" stop-color="#00E0FF" stop-opacity="0"/>
    </radialGradient>
    <radialGradient id="glowRight" cx="80%" cy="70%" r="50%">
      <stop offset="0%" stop-color="#7F7FD5" stop-opacity="0.24"/>
      <stop offset="100%" stop-color="#7F7FD5" stop-opacity="0"/>
    </radialGradient>
  </defs>
  <rect x="0" y="0" width="600" height="260" fill="url(#glowLeft)"/>
  <rect x="600" y="300" width="600" height="230" fill="url(#glowRight)"/>
  <g stroke="url(#aur1)" stroke-width="1.5" stroke-linecap="round" opacity="0.35" filter="url(#glow)">
    <polyline points="140 160 360 130 600 155 820 125 1060 150" fill="none"/>
    <g fill="#9EEAF9" opacity="0.9">
      <circle cx="140" cy="160" r="2"/>
      <circle cx="360" cy="130" r="2"/>
      <circle cx="600" cy="155" r="2"/>
      <circle cx="820" cy="125" r="2"/>
      <circle cx="1060" cy="150" r="2"/>
    </g>
  </g>
  <rect x="0" y="600" width="1200" height="30" fill="#121417"/>
</svg>
