<?xml version="1.0" encoding="UTF-8"?>
<svg xmlns="http://www.w3.org/2000/svg" width="1200" height="320" viewBox="0 0 1200 320" role="img" aria-labelledby="title desc">
  <title>On-brand teaser (Featured)</title>
  <desc>Wide banner for default post, aspect ratio 1200x320 for card fit</desc>
  <defs>
    <linearGradient id="bgGrad" x1="0" y1="0" x2="1" y2="1">
      <stop offset="0%" stop-color="#070A12"/>
      <stop offset="100%" stop-color="#0C1220"/>
    </linearGradient>
    <linearGradient id="aur1" x1="0" y1="0" x2="1" y2="0">
      <stop offset="0%" stop-color="#00E0FF"/>
      <stop offset="100%" stop-color="#7F7FD5"/>
    </linearGradient>
    <linearGradient id="aur2" x1="0" y1="0" x2="1" y2="0">
      <stop offset="0%" stop-color="#7F7FD5"/>
      <stop offset="100%" stop-color="#00E0FF"/>
    </linearGradient>
    <filter id="glow" x="-20%" y="-20%" width="140%" height="140%">
      <feGaussianBlur stdDeviation="8" result="b"/>
      <feMerge>
        <feMergeNode in="b"/>
        <feMergeNode in="SourceGraphic"/>
      </feMerge>
    </filter>
  </defs>
  <rect width="1200" height="320" fill="url(#bgGrad)"/>
  <g opacity="0.06" stroke="#E6ECF1">
    <path d="M0 40 H1200M0 80 H1200M0 120 H1200M0 160 H1200M0 200 H1200M0 240 H1200M0 280 H1200"/>
    <path d="M100 0 V320M250 0 V320M400 0 V320M550 0 V320M700 0 V320M850 0 V320M1000 0 V320"/>
  </g>
  <g stroke-linecap="round" fill="none" filter="url(#glow)">
    <path d="M60,240 C240,210 420,270 600,240 S960,210 1140,240" stroke="url(#aur1)" stroke-width="6" opacity="0.8"/>
    <path d="M60,290 C240,260 420,310 600,290 S960,260 1140,290" stroke="url(#aur2)" stroke-width="4" opacity="0.7"/>
  </g>
  <g stroke="url(#aur1)" stroke-width="1.5" stroke-linecap="round" opacity="0.35" filter="url(#glow)">
    <polyline points="140 100 360 70 600 95 820 65 1060 90" fill="none"/>
    <g fill="#9EEAF9" opacity="0.9">
      <circle cx="140" cy="100" r="2"/>
      <circle cx="360" cy="70" r="2"/>
      <circle cx="600" cy="95" r="2"/>
      <circle cx="820" cy="65" r="2"/>
      <circle cx="1060" cy="90" r="2"/>
    </g>
  </g>
  <rect x="0" y="290" width="1200" height="30" fill="#121417"/>
</svg>
