<?xml version="1.0" encoding="UTF-8"?>
<svg xmlns="http://www.w3.org/2000/svg" width="1200" height="630" viewBox="0 0 1200 630" role="img" aria-labelledby="title desc">
  <title>Avoiding DoH Detection &amp; Blocking</title>
  <desc>Aurora background with shield and cloud overlay representing DoH</desc>
  <defs>
    <linearGradient id="bgGrad" x1="0" y1="0" x2="1" y2="1">
      <stop offset="0%" stop-color="#070A12"/>
      <stop offset="100%" stop-color="#0C1220"/>
    </linearGradient>
    <linearGradient id="aurora1" x1="0" y1="0" x2="1" y2="0">
      <stop offset="0%" stop-color="#00E0FF" stop-opacity="0.9"/>
      <stop offset="100%" stop-color="#7F7FD5" stop-opacity="0.9"/>
    </linearGradient>
    <linearGradient id="aurora2" x1="0" y1="0" x2="1" y2="0">
      <stop offset="0%" stop-color="#7F7FD5" stop-opacity="0.8"/>
      <stop offset="100%" stop-color="#00E0FF" stop-opacity="0.8"/>
    </linearGradient>
    <filter id="glow" x="-20%" y="-20%" width="140%" height="140%">
      <feGaussianBlur stdDeviation="8" result="b"/>
      <feMerge>
        <feMergeNode in="b"/>
        <feMergeNode in="SourceGraphic"/>
      </feMerge>
    </filter>
  </defs>

  <!-- Background -->
  <rect width="1200" height="630" fill="url(#bgGrad)"/>

  <!-- Subtle grid -->
  <g opacity="0.06" stroke="#E6ECF1">
    <path d="M0 90 H1200M0 180 H1200M0 270 H1200M0 360 H1200M0 450 H1200M0 540 H1200"/>
    <path d="M100 0 V630M250 0 V630M400 0 V630M550 0 V630M700 0 V630M850 0 V630M1000 0 V630"/>
  </g>

  <!-- Aurora strokes -->
  <g stroke-linecap="round" fill="none" filter="url(#glow)">
    <path d="M60,450 C240,420 420,480 600,450 S960,420 1140,450" stroke="url(#aurora1)" stroke-width="6" opacity="0.8"/>
    <path d="M60,505 C240,475 420,535 600,505 S960,475 1140,505" stroke="url(#aurora2)" stroke-width="4" opacity="0.7"/>
  </g>

  <!-- Soft aurora glows -->
  <defs>
    <radialGradient id="glowLeft" cx="20%" cy="25%" r="50%">
      <stop offset="0%" stop-color="#00E0FF" stop-opacity="0.28"/>
      <stop offset="100%" stop-color="#00E0FF" stop-opacity="0"/>
    </radialGradient>
    <radialGradient id="glowRight" cx="80%" cy="70%" r="50%">
      <stop offset="0%" stop-color="#7F7FD5" stop-opacity="0.24"/>
      <stop offset="100%" stop-color="#7F7FD5" stop-opacity="0"/>
    </radialGradient>
  </defs>
  <rect x="0" y="0" width="600" height="260" fill="url(#glowLeft)"/>
  <rect x="600" y="300" width="600" height="230" fill="url(#glowRight)"/>

  <!-- Overlay: Shield and cloud -->
  <g transform="translate(420,370)" filter="url(#glow)">
    <path d="M0 -120 L90 -80 L90 0 C90 60 45 95 0 120 C-45 95 -90 60 -90 0 L-90 -80 Z" fill="#121417" stroke="#7F7FD5" stroke-width="6"/>
    <text x="0" y="-10" text-anchor="middle" fill="#00E0FF" font-size="52" font-weight="800" font-family="Inter, system-ui, -apple-system, Segoe UI, Roboto, Helvetica, Arial, sans-serif">DoH</text>
  </g>
  <g transform="translate(840,350)" filter="url(#glow)">
    <ellipse cx="-80" cy="0" rx="90" ry="55" fill="#173F5E"/>
    <ellipse cx="-15" cy="-20" rx="110" ry="70" fill="#1F5F8B"/>
    <ellipse cx="70" cy="0" rx="95" ry="60" fill="#173F5E"/>
    <rect x="-160" y="0" width="320" height="70" rx="20" fill="#1F5F8B"/>
  </g>
  <path d="M510 370 C 620 350, 720 330, 840 350" stroke="#9efdaa" stroke-width="5" fill="none" stroke-dasharray="10 10" opacity="0.8"/>

  <!-- Footer stripe -->
  <rect x="0" y="600" width="1200" height="30" fill="#121417"/>
</svg>
