<?xml version="1.0" encoding="UTF-8"?>
<svg xmlns="http://www.w3.org/2000/svg" width="2400" height="450" viewBox="0 0 2400 450" role="img" aria-label="Aurora wave banner">
  <defs>
    <!-- Background gradient -->
    <linearGradient id="bgGrad" x1="0" y1="0" x2="1" y2="1">
      <stop offset="0%" stop-color="#070A12"/>
      <stop offset="100%" stop-color="#0C1220"/>
    </linearGradient>

    <!-- Soft aurora glows -->
    <radialGradient id="glowLeft" cx="20%" cy="20%" r="60%">
      <stop offset="0%" stop-color="#18FFC5" stop-opacity="0.35"/>
      <stop offset="100%" stop-color="#18FFC5" stop-opacity="0"/>
    </radialGradient>
    <radialGradient id="glowRight" cx="85%" cy="80%" r="60%">
      <stop offset="0%" stop-color="#8B5CF6" stop-opacity="0.28"/>
      <stop offset="100%" stop-color="#8B5CF6" stop-opacity="0"/>
    </radialGradient>

    <!-- Wave fills and strokes -->
    <linearGradient id="waveFill1" x1="0" y1="0" x2="0" y2="1">
      <stop offset="0%" stop-color="#00C6FF" stop-opacity="0.24"/>
      <stop offset="100%" stop-color="#00C6FF" stop-opacity="0"/>
    </linearGradient>
    <linearGradient id="waveFill2" x1="0" y1="0" x2="0" y2="1">
      <stop offset="0%" stop-color="#7F7FD5" stop-opacity="0.22"/>
      <stop offset="100%" stop-color="#7F7FD5" stop-opacity="0"/>
    </linearGradient>
    <linearGradient id="waveStroke" x1="0" y1="0" x2="1" y2="0">
      <stop offset="0%" stop-color="#00E0FF"/>
      <stop offset="50%" stop-color="#7F7FD5"/>
      <stop offset="100%" stop-color="#00E0FF"/>
    </linearGradient>

    <!-- Subtle glow for lines -->
    <filter id="glow" x="-20%" y="-20%" width="140%" height="140%">
      <feGaussianBlur stdDeviation="8" result="b"/>
      <feMerge>
        <feMergeNode in="b"/>
        <feMergeNode in="SourceGraphic"/>
      </feMerge>
    </filter>
  </defs>

  <!-- Background -->
  <rect width="2400" height="450" fill="url(#bgGrad)"/>

  <!-- Auroral glows -->
  <g>
    <rect x="0" y="0" width="1200" height="260" fill="url(#glowLeft)"/>
    <rect x="1200" y="200" width="1200" height="250" fill="url(#glowRight)"/>
  </g>

  <!-- Starscape -->
  <g fill="#FFFFFF">
    <g opacity="0.65">
      <circle cx="120" cy="90" r="1.4"/>
      <circle cx="260" cy="60" r="1.2"/>
      <circle cx="410" cy="130" r="1.7"/>
      <circle cx="540" cy="40" r="1.1"/>
      <circle cx="700" cy="110" r="1.5"/>
      <circle cx="860" cy="70" r="1.2"/>
      <circle cx="980" cy="150" r="1.6"/>
      <circle cx="1100" cy="50" r="1.1"/>
      <circle cx="1260" cy="95" r="1.3"/>
      <circle cx="1380" cy="25" r="1.2"/>
      <circle cx="1520" cy="105" r="1.5"/>
      <circle cx="1670" cy="60" r="1.3"/>
      <circle cx="1810" cy="135" r="1.8"/>
      <circle cx="1960" cy="80" r="1.4"/>
      <circle cx="2080" cy="30" r="1.1"/>
      <circle cx="2200" cy="120" r="1.6"/>
      <circle cx="2330" cy="70" r="1.2"/>
    </g>
    <g opacity="0.35">
      <circle cx="180" cy="180" r="1.0"/>
      <circle cx="350" cy="200" r="0.9"/>
      <circle cx="520" cy="170" r="1.1"/>
      <circle cx="760" cy="190" r="0.9"/>
      <circle cx="940" cy="175" r="1.0"/>
      <circle cx="1180" cy="200" r="1.1"/>
      <circle cx="1420" cy="170" r="0.9"/>
      <circle cx="1680" cy="195" r="1.0"/>
      <circle cx="1920" cy="170" r="1.1"/>
      <circle cx="2160" cy="190" r="0.9"/>
    </g>
  </g>

  <!-- A subtle constellation line -->
  <g stroke="url(#waveStroke)" stroke-width="1.5" stroke-linecap="round" opacity="0.35">
    <polyline points="220 140 420 95 680 125 910 85 1200 120 1460 90 1700 130 1950 100 2200 140" fill="none" filter="url(#glow)"/>
    <g fill="#9EEAF9" opacity="0.9">
      <circle cx="220" cy="140" r="2"/>
      <circle cx="420" cy="95" r="2"/>
      <circle cx="680" cy="125" r="2"/>
      <circle cx="910" cy="85" r="2"/>
      <circle cx="1200" cy="120" r="2"/>
      <circle cx="1460" cy="90" r="2"/>
      <circle cx="1700" cy="130" r="2"/>
      <circle cx="1950" cy="100" r="2"/>
      <circle cx="2200" cy="140" r="2"/>
    </g>
  </g>

  <!-- Layered aurora-like waves -->
  <g>
    <path d="M0,330 C300,290 600,360 900,330 S1500,290 1800,330 S2100,360 2400,330 L2400,450 L0,450 Z" fill="url(#waveFill1)"/>
    <path d="M0,355 C280,320 620,380 940,350 S1500,310 1820,350 S2100,385 2400,352 L2400,450 L0,450 Z" fill="url(#waveFill2)"/>
    <path d="M0,375 C260,345 640,395 980,370 S1520,340 1860,368 S2120,400 2400,372" fill="none" stroke="url(#waveStroke)" stroke-width="2.5" opacity="0.65" filter="url(#glow)"/>
  </g>

  <!-- Bottom vignette for focus -->
  <linearGradient id="vignette" x1="0" y1="0" x2="0" y2="1">
    <stop offset="0%" stop-color="#000" stop-opacity="0"/>
    <stop offset="100%" stop-color="#000" stop-opacity="0.35"/>
  </linearGradient>
  <rect x="0" y="300" width="2400" height="150" fill="url(#vignette)"/>
</svg>
