<?xml version="1.0" encoding="UTF-8"?>
<svg xmlns="http://www.w3.org/2000/svg" width="1200" height="630" viewBox="0 0 1200 630" role="img" aria-labelledby="title desc">
  <title>Comet C/2020 F3 (NEOWISE)</title>
  <desc>Aurora background with a stylized comet streaking across the sky</desc>
  <defs>
    <linearGradient id="bgGrad" x1="0" y1="0" x2="1" y2="1">
      <stop offset="0%" stop-color="#070A12"/>
      <stop offset="100%" stop-color="#0C1220"/>
    </linearGradient>
    <linearGradient id="aurora1" x1="0" y1="0" x2="1" y2="0">
      <stop offset="0%" stop-color="#00E0FF" stop-opacity="0.9"/>
      <stop offset="100%" stop-color="#7F7FD5" stop-opacity="0.9"/>
    </linearGradient>
    <linearGradient id="aurora2" x1="0" y1="0" x2="1" y2="0">
      <stop offset="0%" stop-color="#7F7FD5" stop-opacity="0.8"/>
      <stop offset="100%" stop-color="#00E0FF" stop-opacity="0.8"/>
    </linearGradient>
    <filter id="glow" x="-20%" y="-20%" width="140%" height="140%">
      <feGaussianBlur stdDeviation="8" result="b"/>
      <feMerge>
        <feMergeNode in="b"/>
        <feMergeNode in="SourceGraphic"/>
      </feMerge>
    </filter>
    <linearGradient id="tail" x1="0" y1="0" x2="1" y2="0">
      <stop offset="0%" stop-color="#00E0FF" stop-opacity="0"/>
      <stop offset="60%" stop-color="#7F7FD5" stop-opacity="0.4"/>
      <stop offset="100%" stop-color="#00E0FF" stop-opacity="0.9"/>
    </linearGradient>
  </defs>

  <!-- Background -->
  <rect width="1200" height="630" fill="url(#bgGrad)"/>

  <!-- Subtle grid -->
  <g opacity="0.06" stroke="#E6ECF1">
    <path d="M0 90 H1200M0 180 H1200M0 270 H1200M0 360 H1200M0 450 H1200M0 540 H1200"/>
    <path d="M100 0 V630M250 0 V630M400 0 V630M550 0 V630M700 0 V630M850 0 V630M1000 0 V630"/>
  </g>

  <!-- Aurora strokes -->
  <g stroke-linecap="round" fill="none" filter="url(#glow)" opacity="0.6">
    <path d="M60,500 C240,470 420,530 600,500 S960,470 1140,500" stroke="url(#aurora1)" stroke-width="5"/>
    <path d="M60,545 C240,515 420,575 600,545 S960,515 1140,545" stroke="url(#aurora2)" stroke-width="3.5"/>
  </g>

  <!-- Stars -->
  <g fill="#E6ECF1" opacity="0.6">
    <circle cx="180" cy="260" r="2"/>
    <circle cx="320" cy="220" r="1.5"/>
    <circle cx="540" cy="260" r="1.8"/>
    <circle cx="780" cy="210" r="1.4"/>
    <circle cx="980" cy="260" r="1.6"/>
    <circle cx="1080" cy="180" r="1.3"/>
  </g>

  <!-- Comet -->
  <g transform="translate(220,340)" filter="url(#glow)">
    <path d="M0 0 C 140 -40, 320 -70, 520 -80" stroke="url(#tail)" stroke-width="16" fill="none" stroke-linecap="round"/>
    <circle cx="540" cy="-84" r="10" fill="#E6ECF1"/>
    <circle cx="540" cy="-84" r="6" fill="#00E0FF"/>
  </g>

  <!-- Footer stripe -->
  <rect x="0" y="600" width="1200" height="30" fill="#121417"/>
</svg>
