<?xml version="1.0" encoding="UTF-8"?>
<svg xmlns="http://www.w3.org/2000/svg" width="1200" height="630" viewBox="0 0 1200 630" role="img" aria-labelledby="title desc">
  <title>DBeaver + RDS IAM Authentication</title>
  <desc>Aurora-themed background with database and key overlay for RDS IAM auth</desc>
  <defs>
    <linearGradient id="bgGrad" x1="0" y1="0" x2="1" y2="1">
      <stop offset="0%" stop-color="#070A12"/>
      <stop offset="100%" stop-color="#0C1220"/>
    </linearGradient>
    <linearGradient id="aurora1" x1="0" y1="0" x2="1" y2="0">
      <stop offset="0%" stop-color="#00E0FF" stop-opacity="0.9"/>
      <stop offset="100%" stop-color="#7F7FD5" stop-opacity="0.9"/>
    </linearGradient>
    <linearGradient id="aurora2" x1="0" y1="0" x2="1" y2="0">
      <stop offset="0%" stop-color="#7F7FD5" stop-opacity="0.8"/>
      <stop offset="100%" stop-color="#00E0FF" stop-opacity="0.8"/>
    </linearGradient>
    <filter id="glow" x="-20%" y="-20%" width="140%" height="140%">
      <feGaussianBlur stdDeviation="8" result="b"/>
      <feMerge>
        <feMergeNode in="b"/>
        <feMergeNode in="SourceGraphic"/>
      </feMerge>
    </filter>
  </defs>

  <!-- Background -->
  <rect width="1200" height="630" fill="url(#bgGrad)"/>

  <!-- Subtle grid -->
  <g opacity="0.06" stroke="#E6ECF1">
    <path d="M0 90 H1200M0 180 H1200M0 270 H1200M0 360 H1200M0 450 H1200M0 540 H1200"/>
    <path d="M100 0 V630M250 0 V630M400 0 V630M550 0 V630M700 0 V630M850 0 V630M1000 0 V630"/>
  </g>

  <!-- Aurora strokes -->
  <g stroke-linecap="round" fill="none" filter="url(#glow)">
    <path d="M60,450 C240,420 420,480 600,450 S960,420 1140,450" stroke="url(#aurora1)" stroke-width="6" opacity="0.8"/>
    <path d="M60,505 C240,475 420,535 600,505 S960,475 1140,505" stroke="url(#aurora2)" stroke-width="4" opacity="0.7"/>
  </g>

  <!-- Soft aurora glows -->
  <defs>
    <radialGradient id="glowLeft" cx="20%" cy="25%" r="50%">
      <stop offset="0%" stop-color="#00E0FF" stop-opacity="0.28"/>
      <stop offset="100%" stop-color="#00E0FF" stop-opacity="0"/>
    </radialGradient>
    <radialGradient id="glowRight" cx="80%" cy="70%" r="50%">
      <stop offset="0%" stop-color="#7F7FD5" stop-opacity="0.24"/>
      <stop offset="100%" stop-color="#7F7FD5" stop-opacity="0"/>
    </radialGradient>
  </defs>
  <rect x="0" y="0" width="600" height="260" fill="url(#glowLeft)"/>
  <rect x="600" y="300" width="600" height="230" fill="url(#glowRight)"/>

  <!-- Subtle constellation line -->
  <g stroke="url(#aurora1)" stroke-width="1.5" stroke-linecap="round" opacity="0.35" filter="url(#glow)">
    <polyline points="140 160 360 130 600 155 820 125 1060 150" fill="none"/>
    <g fill="#9EEAF9" opacity="0.9">
      <circle cx="140" cy="160" r="2"/>
      <circle cx="360" cy="130" r="2"/>
      <circle cx="600" cy="155" r="2"/>
      <circle cx="820" cy="125" r="2"/>
      <circle cx="1060" cy="150" r="2"/>
    </g>
  </g>

  <!-- Overlay: DB cylinder and key -->
  <!-- Centered connection card -->
  <g transform="translate(220,300)" filter="url(#glow)">
    <rect x="0" y="0" width="760" height="200" rx="16" fill="#0F1624" opacity="0.9" stroke="#173F5E" stroke-width="2"/>
    <!-- DB cylinder icon (left) -->
    <g transform="translate(160,120)" stroke="#00E0FF" stroke-width="5" fill="#0C1220">
      <ellipse cx="0" cy="-40" rx="60" ry="16"/>
      <rect x="-60" y="-40" width="120" height="80" rx="8"/>
      <ellipse cx="0" cy="40" rx="60" ry="16"/>
      <ellipse cx="0" cy="0" rx="60" ry="16"/>
    </g>
    <!-- Lock/IAM icon (right) -->
    <g transform="translate(600,105)" stroke="#7F7FD5" stroke-width="5" fill="none">
      <rect x="-40" y="0" width="80" height="60" rx="10"/>
      <path d="M-18 0 v-18 a28 28 0 0 1 56 0 V0"/>
      <circle cx="0" cy="30" r="6" fill="#7F7FD5"/>
    </g>
    <!-- Connection path -->
    <path d="M320 120 C 380 100, 440 100, 520 110" stroke="#9efdaa" stroke-width="4" fill="none" opacity="0.8" stroke-dasharray="10 10"/>
  </g>

  <!-- Footer stripe -->
  <rect x="0" y="600" width="1200" height="30" fill="#121417"/>
</svg>
