<?xml version="1.0" encoding="UTF-8"?>
<svg xmlns="http://www.w3.org/2000/svg" width="1200" height="630" viewBox="0 0 1200 630" role="img" aria-labelledby="title desc">
  <title>macOS dotfiles teaser</title>
  <desc>Bare git repo concept: home directory + git objects, terminal + config icons</desc>
  <defs>
    <linearGradient id="bgGrad" x1="0" y1="0" x2="1" y2="1">
      <stop offset="0%" stop-color="#070A12"/>
      <stop offset="100%" stop-color="#0C1220"/>
    </linearGradient>
    <linearGradient id="aur1" x1="0" y1="0" x2="1" y2="0">
      <stop offset="0%" stop-color="#00E0FF"/>
      <stop offset="100%" stop-color="#7F7FD5"/>
    </linearGradient>
    <linearGradient id="aur2" x1="0" y1="0" x2="1" y2="0">
      <stop offset="0%" stop-color="#7F7FD5"/>
      <stop offset="100%" stop-color="#00E0FF"/>
    </linearGradient>
    <filter id="glow" x="-20%" y="-20%" width="140%" height="140%">
      <feGaussianBlur stdDeviation="8" result="b"/>
      <feMerge>
        <feMergeNode in="b"/>
        <feMergeNode in="SourceGraphic"/>
      </feMerge>
    </filter>
    <radialGradient id="glowLeft" cx="25%" cy="30%" r="55%">
      <stop offset="0%" stop-color="#00E0FF" stop-opacity="0.32"/>
      <stop offset="100%" stop-color="#00E0FF" stop-opacity="0"/>
    </radialGradient>
    <radialGradient id="glowRight" cx="80%" cy="70%" r="50%">
      <stop offset="0%" stop-color="#7F7FD5" stop-opacity="0.25"/>
      <stop offset="100%" stop-color="#7F7FD5" stop-opacity="0"/>
    </radialGradient>
  </defs>

  <rect width="1200" height="630" fill="url(#bgGrad)"/>
  <g opacity="0.06" stroke="#E6ECF1">
    <path d="M0 90 H1200M0 180 H1200M0 270 H1200M0 360 H1200M0 450 H1200M0 540 H1200"/>
    <path d="M100 0 V630M250 0 V630M400 0 V630M550 0 V630M700 0 V630M850 0 V630M1000 0 V630"/>
  </g>

  <g stroke-linecap="round" fill="none" filter="url(#glow)">
    <path d="M60,455 C240,425 420,485 600,455 S960,425 1140,455" stroke="url(#aur1)" stroke-width="6" opacity="0.85"/>
    <path d="M60,510 C240,480 420,540 600,510 S960,480 1140,510" stroke="url(#aur2)" stroke-width="4" opacity="0.7"/>
  </g>

  <rect x="0" y="0" width="650" height="300" fill="url(#glowLeft)"/>
  <rect x="650" y="300" width="550" height="250" fill="url(#glowRight)"/>


  <g transform="translate(570 90)" filter="url(#glow)">
    <rect x="0" y="0" width="520" height="260" rx="12" fill="#101722" stroke="#25364B" stroke-width="2"/>
    <rect x="0" y="0" width="520" height="48" rx="12" fill="#131D2A"/>
    <g fill="#25364B">
      <circle cx="28" cy="24" r="6"/>
      <circle cx="52" cy="24" r="6"/>
      <circle cx="76" cy="24" r="6"/>
    </g>
    <text x="104" y="30" font-family="'SFMono-Regular', 'Menlo', monospace" font-size="20" fill="#5B7C9D" letter-spacing="1">dotfiles</text>
    <text x="32" y="92" font-family="'SFMono-Regular', 'Menlo', monospace" font-size="32" fill="#00E0FF">alias</text>
    <text x="145" y="92" font-family="'SFMono-Regular', 'Menlo', monospace" font-size="32" fill="#7F7FD5">dotfiles=</text>
    <text x="32" y="140" font-family="'SFMono-Regular', 'Menlo', monospace" font-size="24" fill="#9EEAF9">/opt/homebrew/bin/git</text>
    <text x="32" y="176" font-family="'SFMono-Regular', 'Menlo', monospace" font-size="22" fill="#7FCCE5">--git-dir=$HOME/.dotfiles/</text>
    <text x="32" y="212" font-family="'SFMono-Regular', 'Menlo', monospace" font-size="22" fill="#7FCCE5">--work-tree=$HOME</text>
  </g>
  <text x="150" y="520" font-family="'Inter', 'Helvetica Neue', Arial, sans-serif" font-size="60" fill="#E6ECF1" font-weight="600">dotfiles</text>
  <text x="150" y="570" font-family="'Inter', 'Helvetica Neue', Arial, sans-serif" font-size="30" fill="#7F9DBD">Clean $HOME • Reproducible setup • Fast bootstrap</text>
  <rect x="0" y="600" width="1200" height="30" fill="#121417"/>
</svg>
